M48
; DRILL file {KiCad 7.0.7} date Sat May 18 15:39:26 2024
; FORMAT={-:-/ absolute / inch / decimal}
; #@! TF.CreationDate,2024-05-18T15:39:26+02:00
; #@! TF.GenerationSoftware,Kicad,Pcbnew,7.0.7
; #@! TF.FileFunction,Plated,1,2,PTH
FMAT,2
INCH
; #@! TA.AperFunction,Plated,PTH,ViaDrill
T1C0.0157
; #@! TA.AperFunction,Plated,PTH,ComponentDrill
T2C0.0280
; #@! TA.AperFunction,Plated,PTH,ComponentDrill
T3C0.0295
; #@! TA.AperFunction,Plated,PTH,ComponentDrill
T4C0.0315
; #@! TA.AperFunction,Plated,PTH,ComponentDrill
T5C0.0394
; #@! TA.AperFunction,Plated,PTH,ComponentDrill
T6C0.0472
; #@! TA.AperFunction,Plated,PTH,ComponentDrill
T7C0.1260
%
G90
G05
T1
X-0.055Y-2.688
X0.048Y-0.639
X0.052Y-0.491
X0.052Y-1.239
X0.052Y-1.837
X0.052Y-2.59
X0.053Y-0.939
X0.053Y-1.088
X0.053Y-1.991
X0.054Y-0.345
X0.054Y-1.54
X0.054Y-2.138
X0.054Y-2.291
X0.055Y-1.694
X0.056Y-0.789
X0.056Y-2.44
X0.057Y-1.391
X0.125Y-0.798
X0.125Y-1.096
X0.125Y-1.698
X0.125Y-1.999
X0.126Y-0.948
X0.126Y-1.396
X0.126Y-1.55
X0.126Y-2.598
X0.127Y-1.248
X0.127Y-1.847
X0.127Y-2.147
X0.127Y-2.297
X0.127Y-2.45
X0.128Y-0.497
X0.128Y-0.647
X0.132Y-0.349
X0.6728Y-2.4299
X0.691Y-1.952
X0.694Y-2.25
X0.695Y-2.102
X0.696Y-1.803
X0.697Y-2.5803
X0.7Y-1.504
X0.701Y-1.656
X0.703Y-1.357
X0.704Y-1.204
X0.7042Y-0.5992
X0.708Y-0.903
X0.709Y-0.75
X0.709Y-1.055
X0.7137Y-2.7027
X0.7186Y-0.4506
X0.852Y-2.069
X0.89Y-2.069
X0.916Y0.007
X0.956Y0.007
X0.983Y-2.752
X0.998Y0.007
X1.023Y-2.752
X1.042Y0.007
X1.065Y-2.752
X1.084Y0.007
X1.109Y-2.752
X1.128Y0.007
X1.132Y-0.521
X1.151Y-2.752
X1.172Y-0.521
X1.195Y-2.752
X1.214Y-0.521
X1.252Y-2.071
X1.258Y-0.521
X1.29Y-2.071
X1.29Y-2.277
X1.3Y-0.521
X1.344Y-0.521
X1.447Y-1.745
X1.487Y-1.745
X1.529Y-1.745
X1.573Y-1.745
X1.584Y-2.288
X1.585Y-1.001
X1.587Y-1.558
X1.615Y-1.745
X1.626Y-2.288
X1.659Y-1.745
X1.67Y-2.288
X1.724Y-1.989
X1.764Y-1.989
X1.806Y-1.989
X1.813Y-1.006
X1.813Y-1.5865
X1.85Y-1.989
X1.892Y-1.989
X1.93Y-1.739
X1.936Y-1.989
X1.94Y-1.467
X1.944Y-0.987
X1.95Y-0.479
X1.956Y0.001
X1.962Y-2.749
X1.972Y-1.739
X1.98Y-1.467
X1.984Y-0.987
X1.99Y-0.479
X1.996Y0.001
X2.002Y-2.749
X2.016Y-1.739
X2.022Y-1.467
X2.026Y-0.987
X2.028Y-2.283
X2.032Y-0.479
X2.037Y-2.969
X2.038Y0.001
X2.044Y-2.749
X2.061Y-1.739
X2.066Y-1.467
X2.07Y-0.987
X2.07Y-2.283
X2.07Y-2.969
X2.076Y-0.479
X2.082Y0.001
X2.088Y-2.749
X2.103Y-1.739
X2.105Y-2.969
X2.108Y-1.467
X2.112Y-0.987
X2.114Y-2.283
X2.118Y-0.479
X2.124Y0.001
X2.13Y-2.749
X2.138Y-2.969
X2.147Y-1.739
X2.152Y-1.467
X2.156Y-0.987
X2.162Y-0.479
X2.168Y0.001
X2.174Y-2.749
X2.2753Y-1.9832
X2.2753Y-2.0525
X2.308Y-1.558
X2.32Y-2.5836
X2.361Y-2.2667
X2.3866Y-2.5836
X2.407Y0.067
X2.409Y-0.2006
X2.4206Y-2.0546
X2.423Y-0.9146
X2.425Y-1.2106
X2.4366Y-1.5846
X2.4391Y-2.2663
X2.448Y-2.6146
X2.448Y-1.777
X2.4666Y-1.5496
X2.4966Y-2.4176
X2.522Y-2.802
X2.522Y-2.835
X2.5324Y-0.469
X2.536Y-0.7586
X2.536Y-1.2546
X2.556Y-2.802
X2.556Y-2.835
X2.5616Y-1.9956
X2.5715Y-0.9146
X2.5716Y-1.3896
X2.5734Y-1.5064
X2.5792Y-1.728
X2.584Y-0.298
X2.5976Y-2.3196
X2.603Y-2.775
X2.6123Y-1.2779
X2.6206Y-1.5646
X2.7052Y-1.5626
X2.7124Y-0.499
X2.7216Y-1.7533
X2.7276Y-0.407
X2.753Y-0.9304
X2.7646Y-2.4199
X2.7696Y-0.8009
X2.7932Y-2.4565
X2.796Y-2.6146
X2.7966Y-2.6796
X2.7976Y-1.7533
X2.8218Y-2.3465
X2.8396Y-1.7026
X2.848Y-1.125
X2.8611Y-2.3486
X2.8618Y-0.6658
X2.863Y-1.1796
X2.8666Y-1.2396
X2.8686Y-1.7706
X2.8816Y-1.3046
X2.884Y-0.5446
X2.8906Y-0.4846
X2.899Y-1.7269
X2.9016Y-1.9828
X2.9026Y-2.5676
X2.904Y-1.011
X2.9306Y-2.0147
X2.9336Y-1.2956
X2.9466Y-0.5496
X2.9486Y-1.5176
X2.9626Y-2.5666
X2.963Y-2.882
X2.9729Y-1.2956
X2.9836Y-0.8496
X2.99Y-1.458
X2.9941Y-1.6854
X2.9996Y-2.0016
X3.0076Y-1.161
X3.0102Y-0.939
X3.0166Y-0.8796
X3.017Y-0.8196
X3.022Y-1.458
X3.037Y-1.012
X3.042Y-0.94
X3.0556Y-1.5196
X3.0592Y-2.3929
X3.063Y0.028
X3.0636Y-2.5676
X3.0716Y-1.261
X3.0766Y-0.8296
X3.09Y-1.6836
X3.1011Y-2.2531
X3.1156Y-2.0016
X3.127Y-0.3546
X3.1535Y-1.8389
X3.1536Y-2.2496
X3.1546Y-1.5196
X3.1581Y-2.8836
X3.1886Y-2.3856
X3.204Y-1.072
X3.2136Y-2.2496
X3.218Y-0.8358
X3.2303Y-2.0819
X3.233Y-1.484
X3.2338Y-1.7028
X3.2348Y-2.121
X3.243Y-0.165
X3.2517Y-2.0452
X3.2566Y-2.7891
X3.2589Y-2.0066
X3.264Y-1.485
X3.2706Y-2.3766
X3.2756Y-1.6846
X3.2771Y-1.9444
X3.3022Y-1.8838
X3.3136Y-2.3766
X3.347Y-0.989
X3.3732Y-1.8265
X3.38Y-0.99
X3.386Y-2.421
X3.386Y-2.452
X3.387Y-2.388
X3.4066Y-0.7746
X3.4066Y-0.8696
X3.4066Y-0.9346
X3.4071Y-0.7336
X3.412Y-0.99
X3.4136Y-1.8266
X3.4156Y-2.0318
X3.416Y-1.095
X3.416Y-1.2308
X3.4166Y-1.9531
X3.4286Y-1.5506
X3.4286Y-1.5866
X3.4286Y-1.6226
X3.435Y-0.902
X3.438Y-0.821
X3.4447Y-1.1354
X3.4447Y-1.2614
X3.588Y-1.375
X3.616Y-2.307
X3.651Y-2.085
X3.655Y-1.768
X3.774Y-2.329
X3.774Y-2.365
X3.774Y-2.399
X3.78Y-0.281
X3.8026Y-1.4366
X3.8406Y-1.4376
X3.8796Y-1.4386
X3.9026Y-2.5136
T2
X0.2204Y-0.1694
X0.2676Y0.0314
T3
X0.5926Y-2.8777
X0.6714Y-2.8777
X3.7091Y-2.5732
X3.7091Y-2.6519
X3.7101Y-2.2032
X3.7101Y-2.2819
X3.7125Y-1.8886
X3.7125Y-1.9674
X3.7145Y-1.5686
X3.7145Y-1.6474
T4
X0.2648Y-2.7927
X0.2648Y-2.8727
X0.2648Y-2.9527
X0.4448Y-2.7927
X0.4448Y-2.8727
X0.4448Y-2.9527
X3.1125Y-1.3516
X3.1912Y-1.3516
X3.2699Y-1.3516
X3.3487Y-1.3516
T5
X2.4574Y-2.971
X2.5574Y-2.971
X2.6574Y-2.971
X3.638Y-0.3416
X3.638Y-0.4416
X3.638Y-0.5416
X3.638Y-0.6416
X3.8956Y-0.3406
X3.8956Y-0.4406
X3.8956Y-0.5406
X3.8956Y-0.6406
T6
X0.0555Y-0.263
X0.0555Y-0.413
X0.0555Y-0.563
X0.0555Y-0.713
X0.0555Y-0.863
X0.0555Y-1.013
X0.0555Y-1.163
X0.0555Y-1.313
X0.0555Y-1.463
X0.0555Y-1.613
X0.0555Y-1.763
X0.0555Y-1.913
X0.0555Y-2.063
X0.0555Y-2.213
X0.0555Y-2.363
X0.0555Y-2.513
X0.0555Y-2.663
X3.754Y-0.875
X3.754Y-1.025
X3.754Y-1.175
X3.754Y-1.325
T7
X0.0Y0.0
X0.0Y-2.908
X1.558Y-0.2664
X1.56Y-2.7014
X3.811Y0.0
X3.811Y-2.908
T0
M30
